<?xml version="1.0" encoding="UTF-8" standalone="no"?>
<svg
   viewBox="0 0 985.63985 938.97809"
   height="938.97809"
   width="985.63983"
   xml:space="preserve"
   id="svg2"
   version="1.1"
   sodipodi:docname="gear.svg"
   inkscape:version="1.3.2 (091e20e, 2023-11-25, custom)"
   xmlns:inkscape="http://www.inkscape.org/namespaces/inkscape"
   xmlns:sodipodi="http://sodipodi.sourceforge.net/DTD/sodipodi-0.dtd"
   xmlns="http://www.w3.org/2000/svg"
   xmlns:svg="http://www.w3.org/2000/svg"
   xmlns:rdf="http://www.w3.org/1999/02/22-rdf-syntax-ns#"
   xmlns:cc="http://creativecommons.org/ns#"
   xmlns:dc="http://purl.org/dc/elements/1.1/"><sodipodi:namedview
     id="namedview1"
     pagecolor="#ffffff"
     bordercolor="#000000"
     borderopacity="0.25"
     inkscape:showpageshadow="2"
     inkscape:pageopacity="0.0"
     inkscape:pagecheckerboard="0"
     inkscape:deskcolor="#d1d1d1"
     inkscape:zoom="0.40412854"
     inkscape:cx="660.68088"
     inkscape:cy="728.72854"
     inkscape:window-width="1920"
     inkscape:window-height="1111"
     inkscape:window-x="-9"
     inkscape:window-y="-9"
     inkscape:window-maximized="1"
     inkscape:current-layer="svg2" /><metadata
     id="metadata8"><rdf:RDF><cc:Work
         rdf:about=""><dc:format>image/svg+xml</dc:format><dc:type
           rdf:resource="http://purl.org/dc/dcmitype/StillImage" /></cc:Work></rdf:RDF></metadata><defs
     id="defs6" /><g
     id="g1"
     transform="rotate(14.252058,1740.8563,-341.87589)"><path
       id="path16"
       style="fill:#8c15ff;fill-opacity:1;fill-rule:nonzero;stroke:none;stroke-width:0.133333"
       d="m 538.82932,850.67335 c -106.992,0 -194.004,-87.02933 -194.004,-193.99733 0,-106.964 87.012,-193.99733 194.004,-193.99733 106.96133,0 193.98133,87.03333 193.98133,193.99733 0,106.968 -87.02,193.99733 -193.98133,193.99733 z m 312.58933,-88.22 c 8.41733,-24.772 13.89466,-50.776 16.13866,-77.57066 l -53.492,-25.91067 c 0.06,-8.67067 -0.25066,-17.40667 -1.03333,-26.18133 -0.21733,-3.03467 -0.62533,-6.012 -0.968,-9.03067 l 50.32133,-31.80133 c -5.23333,-26.41467 -13.55333,-51.648 -24.616,-75.23467 l -59.44,4.31334 c -5.79733,-10.296 -12.27733,-20.19067 -19.31733,-29.55867 l 27.66267,-52.616 c -17.47467,-19.87466 -37.32134,-37.608 -59.012,-52.81466 l -49.284,33.40666 c -10.096,-5.95066 -20.58933,-11.296 -31.46667,-15.976 l -2.336,-59.39066 c -24.76533,-8.41333 -50.78933,-13.9 -77.54799,-16.204 l -25.92267,53.54 c -8.66267,-0.076 -17.352,0.26266 -26.16933,1.01733 -3.05734,0.26667 -6.04667,0.64933 -9.03734,1.008 l -31.75333,-50.37733 c -26.448,5.28267 -51.684,13.60533 -75.296,24.64933 l 4.32934,59.43467 c -10.284,5.81733 -20.18934,12.26933 -29.53334,19.33866 l -52.65333,-27.68266 c -19.91066,17.51066 -37.644,37.33733 -52.78266,59.06 l 33.436,49.25599 c -5.98667,10.10667 -11.37734,20.59334 -16.01734,31.43734 l -59.42,2.33333 c -8.41066,24.772 -13.86266,50.748 -16.13866,77.57867 l 53.52133,25.90666 c -0.0573,8.67867 0.22533,17.40267 0.98,26.18533 0.27067,3.03467 0.64933,6 1.05333,9.02534 l -50.37733,31.77733 c 5.29733,26.42 13.58,51.65333 24.64,75.244 l 59.41467,-4.30534 c 5.82666,10.288 12.27866,20.14134 19.32266,29.54267 l -27.67466,52.6 c 17.47866,19.944 37.36266,37.664 59.04399,52.82666 l 49.26,-33.41199 c 10.12267,6.00799 20.62534,11.37066 31.46667,16.00933 l 2.34,59.404 c 24.76533,8.392 50.716,13.89066 77.51066,16.15466 l 25.98267,-53.52 c 8.636,0.052 17.39067,-0.24266 26.17867,-0.99733 3.01733,-0.24133 6.00666,-0.66133 8.968,-1.04133 l 31.77733,50.41866 c 26.484,-5.29333 51.68533,-13.58533 75.308,-24.628 l -4.296,-59.456 c 10.24266,-5.85333 20.11733,-12.28933 29.53333,-19.32933 l 52.62133,27.66933 c 19.87467,-17.51066 37.60267,-37.32533 52.77733,-59.03999 l -33.37466,-49.26 c 5.928,-10.12267 11.28266,-20.62534 15.98933,-31.48134 l 59.38267,-2.31733" /><path
       id="path18"
       style="fill:#8c15ff;fill-opacity:1;fill-rule:nonzero;stroke:none;stroke-width:0.133333"
       d="m 674.38398,644.83735 c 6.512,74.91334 -48.876,140.91333 -123.74533,147.41333 -74.86666,6.552 -140.88666,-48.90533 -147.42799,-123.75333 -6.47867,-74.87599 48.91466,-140.88666 123.77733,-147.38666 74.89999,-6.54133 140.91999,48.888 147.39599,123.72666 z m -315.69599,11.83867 c 0,99.31867 80.784,180.13333 180.14133,180.13333 99.33066,0 180.11333,-80.81466 180.11333,-180.13333 0,-99.32666 -80.78267,-180.14533 -180.11333,-180.14533 -99.35733,0 -180.14133,80.81867 -180.14133,180.14533" /><path
       id="path24"
       style="fill:#aad4c8;fill-opacity:0;fill-rule:nonzero;stroke:none;stroke-width:0.133333"
       d="m 718.94265,656.67602 c 0,99.31867 -80.78267,180.13333 -180.11333,180.13333 -99.35733,0 -180.14133,-80.81466 -180.14133,-180.13333 0,-99.32666 80.784,-180.14533 180.14133,-180.14533 99.33066,0 180.11333,80.81867 180.11333,180.14533 z m -374.11733,0 c 0,106.968 87.012,193.99733 194.004,193.99733 106.96133,0 193.98133,-87.02933 193.98133,-193.99733 0,-106.964 -87.02,-193.99733 -193.98133,-193.99733 -106.992,0 -194.004,87.03333 -194.004,193.99733" /></g><g
     id="g2"
     transform="rotate(12.457527,1931.4618,-565.49241)"><path
       id="path20"
       style="fill:#8c15ff;fill-opacity:1;fill-rule:nonzero;stroke:none"
       d="m 8384.67,4707.92 c 198.62,-335.82 87.45,-769.21 -248.38,-967.9 -340.22,-201.07 -779.75,-84.42 -975.11,261 -183.19,324.42 -73.35,751.58 243.51,947.72 337.43,208.92 778.84,98.65 979.98,-240.82 z M 6616.98,4353.28 c -13.34,-638.41 495.18,-1168.69 1133.49,-1182.03 638.4,-13.43 1168.62,495.18 1181.97,1133.43 13.5,638.37 -494.94,1168.65 -1133.58,1182.03 -638.38,13.37 -1168.59,-495.06 -1181.88,-1133.43"
       transform="matrix(0.13333333,0,0,-0.13333333,0,1496)" /><path
       id="path22"
       style="fill:#8c15ff;fill-opacity:1;fill-rule:nonzero;stroke:none"
       d="m 7749.35,3121.14 c -665.94,13.92 -1196.43,567.14 -1182.39,1233.2 13.77,665.94 566.9,1196.46 1233.08,1182.48 665.97,-13.92 1196.34,-567.14 1182.6,-1233.2 -14.04,-666 -567.08,-1196.52 -1233.29,-1182.48 z m 1886.16,1024.28 c 13.1,134.72 11.95,270.44 -4.15,406.25 l -315.04,75.34 c -16.55,82.58 -39.95,164.95 -69.42,245.66 l 230.86,227.79 c -27.75,61.28 -59.07,121.71 -94.11,180.69 -34.65,58.77 -72.45,115.02 -112.9,168.97 l -310.8,-92.86 c -56.5,65.17 -117.29,125 -182.24,178.96 l 86.04,312.4 c -111.24,79.46 -229.74,146.03 -354.02,199.35 l -223.17,-236.03 c -80.4,27.85 -162.92,49.03 -246.53,63.58 l -82.49,314.37 c -134.38,13.02 -270.34,11.57 -405.42,-5.02 l -75.99,-314.89 c -82.69,-16.03 -164.46,-39.33 -245.11,-69.26 l -228.01,230.67 c -60.76,-27.47 -121.73,-58.4 -180.62,-93.62 -58.91,-34.71 -115.2,-72.63 -168.98,-112.6 l 92.54,-311.35 c -64.94,-56.58 -124.79,-117.26 -178.78,-182.07 l -312.4,85.75 c -79.65,-110.84 -146.04,-229.43 -199.33,-353.41 l 235.79,-223.38 c -27.81,-80.49 -48.36,-163.01 -63.1,-246.62 l -314.04,-82.42 c -13.28,-134.43 -11.92,-270.42 4.21,-405.95 l 315.46,-75.05 c 16.13,-83.03 39.22,-164.95 68.7,-246.05 l -230.65,-227.7 c 27.6,-61.34 58.61,-121.47 93.69,-180.14 35.04,-59.19 72.68,-115.69 112.87,-169.31 l 311.22,92.63 c 56.35,-64.94 117.6,-124.73 182.08,-178.63 l -85.57,-312.76 c 111.05,-79.32 229.25,-146.2 353.1,-198.82 l 223.66,235.61 c 80.64,-28.05 162.37,-48.96 246.74,-63.28 l 82.22,-314.31 c 134.17,-12.73 270.4,-11.89 405.91,4.33 l 75.04,315.31 c 82.91,16 164.92,39.34 245.56,69.2 l 228.78,-230.79 c 60.75,27.32 121.01,58.64 179.92,93.57 59.07,34.85 114.93,72.65 168.89,113.14 l -92.51,310.8 c 65,56.47 124.82,117.53 178.75,182.14 l 312.64,-85.67 c 79.47,111.03 146.31,229.59 198.91,353.53 l -235.79,223.65 c 27.6,79.96 49.06,162.26 63.55,246.23 l 314.04,82.07"
       transform="matrix(0.13333333,0,0,-0.13333333,0,1496)" /><path
       id="path26"
       style="fill:#82bfab;fill-opacity:0;fill-rule:nonzero;stroke:none"
       d="m 8932.44,4304.68 c -13.35,-638.25 -543.57,-1146.86 -1181.97,-1133.43 -638.31,13.34 -1146.83,543.62 -1133.49,1182.03 13.29,638.37 543.5,1146.8 1181.88,1133.43 638.64,-13.38 1147.08,-543.66 1133.58,-1182.03 z m -2365.48,49.66 c -14.04,-666.06 516.45,-1219.28 1182.39,-1233.2 666.21,-14.04 1219.25,516.48 1233.29,1182.48 13.74,666.06 -516.63,1219.28 -1182.6,1233.2 -666.18,13.98 -1219.31,-516.54 -1233.08,-1182.48"
       transform="matrix(0.13333333,0,0,-0.13333333,0,1496)" /></g></svg>
